<?xml version="1.0" encoding="UTF-8" standalone="no"?>
<!-- Generator: Adobe Illustrator 16.0.0, SVG Export Plug-In . SVG Version: 6.00 Build 0)  -->

<svg
   xmlns:dc="http://purl.org/dc/elements/1.1/"
   xmlns:cc="http://creativecommons.org/ns#"
   xmlns:rdf="http://www.w3.org/1999/02/22-rdf-syntax-ns#"
   xmlns:svg="http://www.w3.org/2000/svg"
   xmlns="http://www.w3.org/2000/svg"
   xmlns:xlink="http://www.w3.org/1999/xlink"
   xmlns:sodipodi="http://sodipodi.sourceforge.net/DTD/sodipodi-0.dtd"
   xmlns:inkscape="http://www.inkscape.org/namespaces/inkscape"
   version="1.1"
   id="Capa_1"
   x="0px"
   y="0px"
   width="300"
   height="450"
   viewBox="0 0 299.99998 449.99998"
   enable-background="new 0 0 259.334 323.334"
   xml:space="preserve"
   inkscape:version="0.91 r13725"
   sodipodi:docname="biocl-01.svg"><metadata
     id="metadata4286"><rdf:RDF><cc:Work
         rdf:about=""><dc:format>image/svg+xml</dc:format><dc:type
           rdf:resource="http://purl.org/dc/dcmitype/StillImage" /><dc:title></dc:title></cc:Work></rdf:RDF></metadata><defs
     id="defs4284" /><sodipodi:namedview
     pagecolor="#ffffff"
     bordercolor="#666666"
     borderopacity="1"
     objecttolerance="10"
     gridtolerance="10"
     guidetolerance="10"
     inkscape:pageopacity="0"
     inkscape:pageshadow="2"
     inkscape:window-width="2548"
     inkscape:window-height="1318"
     id="namedview4282"
     showgrid="false"
     inkscape:zoom="1.7226768"
     inkscape:cx="-13.891588"
     inkscape:cy="193.09704"
     inkscape:window-x="3"
     inkscape:window-y="0"
     inkscape:window-maximized="0"
     inkscape:current-layer="Capa_1" /><g
     id="g4232"
     transform="matrix(1.2142554,0,0,1.4985564,-7.2289681,-22.545795)"><g
       id="g4234"><path
         d="m 134.49,296.258 c 0,2.674 -1.626,4.844 -3.631,4.844 l -4.967,0 c -2.003,0 -3.631,-2.17 -3.631,-4.844 l 0,-19.355 c 0,-2.673 1.628,-4.842 3.631,-4.842 l 4.967,0 c 2.005,0 3.631,2.169 3.631,4.842 l 0,19.355 z"
         id="path4236"
         inkscape:connector-curvature="0"
         style="clip-rule:evenodd;fill:#134177;fill-rule:evenodd" /><path
         d="m 144.315,312.202 -31.881,0 0,0 c 0,-8.805 7.137,-15.94 15.941,-15.94 l 0,0 c 8.806,0 15.94,7.135 15.94,15.94 l 0,0 z"
         id="path4238"
         inkscape:connector-curvature="0"
         style="clip-rule:evenodd;fill:#134177;fill-rule:evenodd" /></g><g
       id="g4240"><defs
         id="defs4242"><path
           id="SVGID_1_"
           d="m 184.79,109.592 0,-21.678 c 0,-2.674 -1.983,-4.84 -4.439,-4.84 l -105.539,0 c -2.456,0 -4.443,2.166 -4.443,4.84 l 0,20.152 c -2.094,15.604 -16.43,18.286 -16.43,34.801 l 0,98.448 c 0,21.389 17.241,38.729 38.509,38.729 l 72.418,0 c 21.268,0 38.508,-17.341 38.508,-38.729 l 0,-98.448 c 0,-16.339 -15.373,-19.078 -18.584,-33.275 z"
           inkscape:connector-curvature="0" /></defs><clipPath
         id="SVGID_2_"><use
           xlink:href="#SVGID_1_"
           overflow="visible"
           id="use4246"
           style="overflow:visible"
           x="0"
           y="0"
           width="100%"
           height="100%" /></clipPath><path
         clip-path="url(#SVGID_2_)"
         d="m 53.554,157.79 c 0,0 12.807,21.488 42.694,21.488 29.889,0 46.964,-25.619 75.714,-25.619 28.749,0 31.594,7.402 31.594,7.402 l 0,86.815 c 0,0 -4.838,32.449 -35.294,32.449 -30.459,0 -83.332,0 -83.332,0 0,0 -30.937,-0.849 -30.937,-37.711 0,-36.864 -0.439,-84.824 -0.439,-84.824 z"
         id="path4248"
         inkscape:connector-curvature="0"
         style="clip-rule:evenodd;fill:#57b4df;fill-rule:evenodd" /></g><g
       id="g4250"><path
         d="m 32.213,301.665 c -0.27,2.658 -2.644,4.598 -5.303,4.329 l -6.588,-0.665 c -2.661,-0.272 -4.599,-2.647 -4.328,-5.306 l 21.54,-212.96 c 0.267,-2.662 2.644,-4.6 5.302,-4.331 l 6.587,0.666 c 2.662,0.269 4.598,2.644 4.331,5.307 l -21.541,212.96 z"
         id="path4252"
         inkscape:connector-curvature="0"
         style="clip-rule:evenodd;fill:#134177;fill-rule:evenodd" /><path
         d="m 43.31,315.334 -37.574,0 0,0 c 0,-10.375 8.41,-18.784 18.785,-18.784 l 0,0 c 10.377,0 18.789,8.409 18.789,18.784 l 0,0 z"
         id="path4254"
         inkscape:connector-curvature="0"
         style="clip-rule:evenodd;fill:#134177;fill-rule:evenodd" /></g><g
       id="g4256"><path
         d="m 224.536,301.665 c 0.272,2.658 2.644,4.598 5.304,4.329 l 6.59,-0.665 c 2.658,-0.272 4.599,-2.647 4.328,-5.306 l -21.54,-212.96 c -0.267,-2.662 -2.644,-4.6 -5.302,-4.331 l -6.591,0.666 c -2.658,0.269 -4.594,2.644 -4.327,5.307 l 21.538,212.96 z"
         id="path4258"
         inkscape:connector-curvature="0"
         style="clip-rule:evenodd;fill:#134177;fill-rule:evenodd" /><path
         d="m 252.801,315.334 -37.574,0 0,0 c 0,-10.375 8.409,-18.784 18.79,-18.784 l 0,0 c 10.375,0 18.784,8.409 18.784,18.784 l 0,0 z"
         id="path4260"
         inkscape:connector-curvature="0"
         style="clip-rule:evenodd;fill:#134177;fill-rule:evenodd" /></g><path
       d="m 223.44,55.464 c 0,2.674 -2.166,4.843 -4.836,4.843 l -180.457,0 c -2.675,0 -4.842,-2.169 -4.842,-4.843 l 0,-1.702 c 0,-2.674 2.167,-4.843 4.842,-4.843 l 180.457,0 c 2.67,0 4.836,2.169 4.836,4.843 l 0,1.702 z"
       id="path4262"
       inkscape:connector-curvature="0"
       style="clip-rule:evenodd;fill:#134177;fill-rule:evenodd" /><path
       d="m 223.44,72.701 c 0,3.176 -2.166,5.749 -4.836,5.749 l -180.457,0 c -2.675,0 -4.842,-2.573 -4.842,-5.749 l 0,-2.021 c 0,-3.175 2.167,-5.752 4.842,-5.752 l 180.457,0 c 2.67,0 4.836,2.577 4.836,5.752 l 0,2.021 z"
       id="path4264"
       inkscape:connector-curvature="0"
       style="clip-rule:evenodd;fill:#134177;fill-rule:evenodd" /><g
       id="g4266"><path
         d="m 83.974,50.62 c 0,2.671 -2.167,4.841 -4.84,4.841 l -4.837,0 c -2.674,0 -4.84,-2.17 -4.84,-4.841 l 0,-3.98 c 0,-2.672 2.166,-4.84 4.84,-4.84 l 4.837,0 c 2.673,0 4.84,2.168 4.84,4.84 l 0,3.98 z"
         id="path4268"
         inkscape:connector-curvature="0"
         style="clip-rule:evenodd;fill:#134177;fill-rule:evenodd" /><path
         d="m 185.585,50.62 c 0,2.671 -2.165,4.841 -4.84,4.841 l -4.837,0 c -2.672,0 -4.84,-2.17 -4.84,-4.841 l 0,-3.98 c 0,-2.672 2.168,-4.84 4.84,-4.84 l 4.837,0 c 2.675,0 4.84,2.168 4.84,4.84 l 0,3.98 z"
         id="path4270"
         inkscape:connector-curvature="0"
         style="clip-rule:evenodd;fill:#134177;fill-rule:evenodd" /><path
         d="m 138.195,48.06 c 0,2.674 -1.51,4.84 -3.373,4.84 l -12.892,0 c -1.865,0 -3.374,-2.166 -3.374,-4.84 l 0,-28.175 c 0,-2.673 1.509,-4.84 3.374,-4.84 l 12.893,0 c 1.863,0 3.373,2.167 3.373,4.84 l 0,28.175 z"
         id="path4272"
         inkscape:connector-curvature="0"
         style="clip-rule:evenodd;fill:#134177;fill-rule:evenodd" /></g><g
       id="g4274"><path
         d="m 164.584,286.023 -72.416,0 c -23.119,0 -41.925,-18.904 -41.925,-42.143 l 0,-98.45 c 0,-9.965 4.72,-15.685 8.885,-20.734 3.415,-4.136 6.642,-8.047 7.542,-14.3 l 0,-19.917 c 0,-4.552 3.525,-8.256 7.858,-8.256 l 105.538,0 c 4.333,0 7.858,3.704 7.858,8.256 l 0,21.279 c 1.298,5.252 4.674,8.774 8.236,12.499 4.852,5.062 10.345,10.802 10.345,21.174 l 0,98.45 c 0.001,23.238 -18.803,42.142 -41.921,42.142 z M 74.528,89.054 c -0.487,0 -1.027,0.585 -1.027,1.425 l -0.027,20.606 c -1.117,8.313 -5.346,13.438 -9.075,17.96 -3.929,4.763 -7.324,8.874 -7.324,16.386 l 0,98.45 c 0,19.471 15.74,35.312 35.094,35.312 l 72.416,0 c 19.351,0 35.093,-15.842 35.093,-35.312 l 0,-98.45 c 0,-7.629 -3.914,-11.717 -8.446,-16.449 -3.94,-4.111 -8.404,-8.773 -10.054,-16.075 l -0.082,-0.75 0,-21.678 c 0,-0.84 -0.541,-1.425 -1.028,-1.425 l -105.54,0 z"
         id="path4276"
         inkscape:connector-curvature="0"
         style="fill:#134177" /></g><path
       d="m 137.34,239.328 c 0,2.674 -1.377,4.843 -3.08,4.843 l -11.771,0 c -1.7,0 -3.079,-2.169 -3.079,-4.843 l 0,-151.988 c 0,-2.675 1.379,-4.84 3.079,-4.84 l 11.771,0 c 1.703,0 3.08,2.165 3.08,4.84 l 0,151.988 z"
       id="path4278"
       inkscape:connector-curvature="0"
       style="clip-rule:evenodd;fill:#134177;fill-rule:evenodd" /><path
       d="m 106.19,159.397 c -0.064,7.146 -5.823,12.763 -13.144,12.817 -6.878,0.052 -13.071,-6.143 -12.991,-12.988 0.082,-7.457 6.146,-13.301 13.594,-13.102 7.159,0.185 12.605,5.952 12.541,13.273 z"
       id="path4280"
       inkscape:connector-curvature="0"
       style="clip-rule:evenodd;fill:#57b4df;fill-rule:evenodd" /></g></svg>